<?xml version="1.0" encoding="UTF-8"?>
<svg width="128pt" height="128pt" version="1.1" viewBox="0 0 128 128" xmlns="http://www.w3.org/2000/svg">
 <g fill="none" stroke="#ff0000" stroke-width="8.46">
  <path transform="scale(.15112)" d="m336 413.99s-5.9968-68.989 123.01-27.012c0 0 4.0065-27.994-14.01-42.004 0 0 34.999-14.992 50.999 4.9887 0 0 10.003-30.992-23.987-34.999 0 0 37.997-29.002 4.9887-64.001 0 0 43.994 8.9952 26.003 49.991 0 0 97.009 16-33.008 129.01-272 97.009-145.99 327.99 62.993 308.01 0 0-87.006-131 94.993-141 0 0-30.992-55.005-125-21.997 0 0 84.99-93.003 164.99 13.002 0 0-50.999-177.99-231.99-39.005 59.994-156 317-26.003 289.01-153-71.988 80.001-151.01-91.994 14.992-71.988 0 0 59.012 7.0049 90.004 64.001 0 0-46.01-205-254.99-75.012 0 0-26.003-97.991 129.99-71.006 0 0-61.002-65.991-170.99-37.997 0 0 75.994-49.009 82.999-103.01 0 0-40.996 78.01-160 105 0 0 68.007-42.004 75.012-113.99 0 0-39.987 77.002-107.99 107.01 0 0 32-52.989-2.9984-91.994 0 0 7.0049 84.99-39.987 94.993l-4.0065-48s-52.989 100.99-87.006 112v-24.995s-27.994 45.002-78.01 39.005c0 0-13.002 48 36.007 68.007l-1.9903-30.992 27.012 13.002-4.0065-20.989 30.01 7.9872c23.987-97.009 100.01 30.01 18.999 30.992 0 0-2.9984 27.994-30.01 16 0 0-1.0081 34.999 48 49.991zm0 0" stroke-linecap="round" stroke-linejoin="round"/>
  <path transform="scale(.15112)" d="m30.992 345s30.992 11.011 53.997-4.0065l-4.0065 23.005s68.007 0 98.999-42.004c0 0 1.9903 49.991-21.997 64.001 0 0 59.994 14.01 116.99-39.005-68.989 118-231.99 58.004-244.01-1.9903zm0 0" stroke-linecap="round" stroke-linejoin="round"/>
  <path transform="scale(.15112)" d="m355 263.99s-17.008-27.012 33.991-20.989c0 0-17.99 29.002-33.991 20.989z"/>
 </g>
</svg>
